<svg width="142" height="30" viewBox="0 0 142 30" fill="none" xmlns="http://www.w3.org/2000/svg">
<g opacity="0.5">
<path d="M6.06355 11.4763C7.98239 9.44801 11.0142 8.2285 15.1589 7.81772V13.1322H10.6688C9.2872 13.1322 8.26382 13.4788 7.59862 14.172C6.95901 14.8395 6.54965 15.6611 6.37056 16.6367C6.21705 17.6123 6.1403 18.8575 6.1403 20.3723V29.1143H0V8.1258H5.33439L6.06355 11.4763Z" fill="url(#paint0_linear_40_1901)"/>
<path d="M44.8923 19.1014H23.5931C23.6698 20.3338 24.0152 21.4763 24.6293 22.5289C25.2433 23.5558 26.126 24.3902 27.2773 25.0321C28.4286 25.6739 29.8229 25.9949 31.4603 25.9949C32.8163 25.9949 34.0572 25.751 35.1829 25.2632C36.3086 24.7754 37.1913 24.1463 37.8309 23.3761C38.4705 22.5802 38.7903 21.7458 38.7903 20.8729H44.8923C44.8923 22.439 44.355 23.9153 43.2804 25.3017C42.2315 26.6624 40.6836 27.7664 38.6368 28.6136C36.5901 29.4608 34.1723 29.8845 31.3836 29.8845C28.8507 29.8845 26.5097 29.4095 24.3606 28.4596C22.2371 27.5096 20.5357 26.1746 19.2565 24.4544C18.0029 22.7086 17.376 20.7189 17.376 18.4852C17.376 16.2259 17.9901 14.2362 19.2181 12.516C20.4462 10.7702 22.122 9.43517 24.2455 8.51091C26.3946 7.56098 28.774 7.08601 31.3836 7.08601C34.07 7.08601 36.4238 7.54814 38.4449 8.4724C40.4661 9.39666 42.0396 10.706 43.1653 12.4005C44.291 14.0693 44.8667 16.0334 44.8923 18.2927V18.4852V19.1014ZM31.4603 10.9756C29.4392 10.9756 27.8273 11.4249 26.6249 12.3235C25.4224 13.1964 24.5653 14.3774 24.0536 15.8665H38.4833C38.1251 14.3774 37.3832 13.1964 36.2575 12.3235C35.1317 11.4249 33.5327 10.9756 31.4603 10.9756Z" fill="url(#paint1_linear_40_1901)"/>
<path d="M62.5312 16.8678C64.4245 16.8678 66.0747 16.9961 67.4818 17.2529C68.9146 17.5096 70.1043 18.0745 71.0509 18.9474C71.9975 19.7946 72.4708 21.0526 72.4708 22.7214C72.4708 25.751 71.2044 27.7279 68.6715 28.6521C66.1386 29.5507 63.158 30 59.7297 30C56.4037 30 53.3591 29.4737 50.596 28.4211C47.8329 27.3427 46.4513 25.2888 46.4513 22.2593L52.63 22.2978C52.63 23.6329 53.3464 24.5956 54.7791 25.1861C56.2118 25.751 57.862 26.0334 59.7297 26.0334C62.1858 26.0334 63.9256 25.7895 64.949 25.3017C65.9724 24.8139 66.484 24.0436 66.484 22.991C66.484 21.9127 65.8956 21.2324 64.7187 20.9499C63.5674 20.6675 62.0963 20.5263 60.3054 20.5263H59.3459C55.7641 20.5006 52.7195 20.0513 50.2122 19.1784C47.705 18.3055 46.4513 16.5725 46.4513 13.9795C46.4513 11.2067 47.7689 9.39666 50.4041 8.54942C53.0649 7.70218 56.1351 7.27856 59.6146 7.27856C62.915 7.27856 65.8828 7.80488 68.518 8.85751C71.1532 9.91014 72.4708 11.9512 72.4708 14.9807L66.3305 14.9037C66.3305 13.4146 65.5374 12.4262 63.9512 11.9384C62.3649 11.4249 60.9066 11.1682 59.5762 11.1682C57.7085 11.1682 56.0839 11.3479 54.7023 11.7073C53.3208 12.0411 52.63 12.7728 52.63 13.9024C52.63 15.905 54.907 16.9063 59.4611 16.9063L62.5312 16.8678Z" fill="url(#paint2_linear_40_1901)"/>
<path d="M93.3784 8.1258H99.5187V29.1143H93.3784V26.3415C91.3573 28.6521 88.2743 29.8074 84.1296 29.8074C81.213 29.8074 78.9359 28.819 77.2985 26.8421C75.6611 24.8395 74.8424 21.4891 74.8424 16.7908V8.1258H80.9827V16.6752C80.9827 18.3184 81.1106 19.7561 81.3665 20.9884C81.6223 22.2208 82.1852 23.2734 83.0551 24.1463C83.9505 24.9936 85.2809 25.4172 87.0462 25.4172C89.6047 25.4172 91.2933 24.5828 92.112 22.914C92.9563 21.2195 93.3784 19.0757 93.3784 16.4827V8.1258Z" fill="url(#paint3_linear_40_1901)"/>
<path d="M108.641 29.1143H102.501V0.616176H108.641V29.1143Z" fill="url(#paint4_linear_40_1901)"/>
<path d="M122.189 8.1258H126.18V12.8241H122.189V29.1143H116.049V12.8241H111.866V8.1258H116.049V3.58151L122.189 0V8.1258Z" fill="url(#paint5_linear_40_1901)"/>
<path d="M140.696 28.9136C139.827 29.6379 138.767 30 137.517 30C136.724 30 135.961 29.8504 135.229 29.5513C134.513 29.2363 133.918 28.7482 133.445 28.0869C132.988 27.4256 132.759 26.599 132.759 25.607C132.759 24.6151 132.988 23.7884 133.445 23.1271C133.918 22.4658 134.513 21.9777 135.229 21.6628C135.961 21.3479 136.724 21.1904 137.517 21.1904C138.767 21.1904 139.827 21.5605 140.696 22.3005C141.565 23.0248 142 24.127 142 25.607C142 27.0871 141.565 28.1893 140.696 28.9136Z" fill="url(#paint6_linear_40_1901)"/>
</g>
<defs>
<linearGradient id="paint0_linear_40_1901" x1="66.7877" y1="5.6391" x2="66.7877" y2="49.1014" gradientUnits="userSpaceOnUse">
<stop stop-color="white"/>
<stop offset="1" stop-color="white" stop-opacity="0.4"/>
</linearGradient>
<linearGradient id="paint1_linear_40_1901" x1="66.7877" y1="5.6391" x2="66.7877" y2="49.1014" gradientUnits="userSpaceOnUse">
<stop stop-color="white"/>
<stop offset="1" stop-color="white" stop-opacity="0.4"/>
</linearGradient>
<linearGradient id="paint2_linear_40_1901" x1="66.7877" y1="5.6391" x2="66.7877" y2="49.1014" gradientUnits="userSpaceOnUse">
<stop stop-color="white"/>
<stop offset="1" stop-color="white" stop-opacity="0.4"/>
</linearGradient>
<linearGradient id="paint3_linear_40_1901" x1="66.7877" y1="5.6391" x2="66.7877" y2="49.1014" gradientUnits="userSpaceOnUse">
<stop stop-color="white"/>
<stop offset="1" stop-color="white" stop-opacity="0.4"/>
</linearGradient>
<linearGradient id="paint4_linear_40_1901" x1="66.7877" y1="5.6391" x2="66.7877" y2="49.1014" gradientUnits="userSpaceOnUse">
<stop stop-color="white"/>
<stop offset="1" stop-color="white" stop-opacity="0.4"/>
</linearGradient>
<linearGradient id="paint5_linear_40_1901" x1="66.7877" y1="5.6391" x2="66.7877" y2="49.1014" gradientUnits="userSpaceOnUse">
<stop stop-color="white"/>
<stop offset="1" stop-color="white" stop-opacity="0.4"/>
</linearGradient>
<linearGradient id="paint6_linear_40_1901" x1="137.105" y1="17.7425" x2="137.105" y2="35.6092" gradientUnits="userSpaceOnUse">
<stop stop-color="white"/>
<stop offset="1" stop-color="white" stop-opacity="0.4"/>
</linearGradient>
</defs>
</svg>
